<?xml version="1.0" encoding="UTF-8" standalone="no"?>
<!-- Generator: Adobe Illustrator 17.1.0, SVG Export Plug-In . SVG Version: 6.00 Build 0)  -->

<svg
   xmlns:dc="http://purl.org/dc/elements/1.1/"
   xmlns:cc="http://creativecommons.org/ns#"
   xmlns:rdf="http://www.w3.org/1999/02/22-rdf-syntax-ns#"
   xmlns:svg="http://www.w3.org/2000/svg"
   xmlns="http://www.w3.org/2000/svg"
   xmlns:sodipodi="http://sodipodi.sourceforge.net/DTD/sodipodi-0.dtd"
   xmlns:inkscape="http://www.inkscape.org/namespaces/inkscape"
   version="1.1"
   id="Capa_1"
   x="0px"
   y="0px"
   viewBox="0 0 6.7271012 7.62886"
   xml:space="preserve"
   width="12.345075"
   height="13.999915"
   inkscape:version="0.91 r13725"
   sodipodi:docname="bag.svg"><metadata
     id="metadata39"><rdf:RDF><cc:Work
         rdf:about=""><dc:format>image/svg+xml</dc:format><dc:type
           rdf:resource="http://purl.org/dc/dcmitype/StillImage" /><dc:title></dc:title></cc:Work></rdf:RDF></metadata><defs
     id="defs37" /><sodipodi:namedview
     pagecolor="#ffffff"
     bordercolor="#666666"
     borderopacity="1"
     objecttolerance="10"
     gridtolerance="10"
     guidetolerance="10"
     inkscape:pageopacity="0"
     inkscape:pageshadow="2"
     inkscape:window-width="1920"
     inkscape:window-height="1027"
     id="namedview35"
     showgrid="false"
     fit-margin-top="0"
     fit-margin-left="0"
     fit-margin-right="0"
     fit-margin-bottom="0"
     inkscape:zoom="1.5538635"
     inkscape:cx="194.98228"
     inkscape:cy="255.99993"
     inkscape:window-x="0"
     inkscape:window-y="0"
     inkscape:window-maximized="1"
     inkscape:current-layer="Capa_1" /><path
     d="M 6.724673,7.39208 6.288404,1.99325 C 6.279804,1.88675 6.190844,1.80469 6.083983,1.80469 l -1.171213,0 0,-0.25963 C 4.91277,0.69312 4.228794,0 3.376819,0 L 3.349749,0 C 2.497801,0 1.795587,0.69312 1.795587,1.54506 l 0,0.25963 -1.15300097,0 c -0.106861,0 -0.19581,0.0821 -0.204422,0.18856 L 6.6402583e-4,7.40731 C -0.00393597,7.46441 0.01551403,7.52078 0.05433403,7.56286 c 0.03882,0.0421 0.09352,0.066 0.150746,0.066 l 6.31639597,0 c 1.64e-4,0 3.83e-4,0 5.47e-4,0 0.113285,0 0.205078,-0.0918 0.205078,-0.20508 0,-0.0108 -8.2e-4,-0.0214 -0.0025,-0.0317 z M 2.205742,1.54506 c 0,-0.62579 0.518218,-1.1349 1.144007,-1.1349 l 0.02707,0 c 0.625788,0 1.125795,0.50911 1.125795,1.1349 l 0,0.25963 -2.296872,0 0,-0.25963 z"
     id="path3"
     inkscape:connector-curvature="0"
     style="fill:#9d9da1" /><g
     id="g5"
     transform="translate(-16.489537,-271.3711)" /><g
     id="g7"
     transform="translate(-16.489537,-271.3711)" /><g
     id="g9"
     transform="translate(-16.489537,-271.3711)" /><g
     id="g11"
     transform="translate(-16.489537,-271.3711)" /><g
     id="g13"
     transform="translate(-16.489537,-271.3711)" /><g
     id="g15"
     transform="translate(-16.489537,-271.3711)" /><g
     id="g17"
     transform="translate(-16.489537,-271.3711)" /><g
     id="g19"
     transform="translate(-16.489537,-271.3711)" /><g
     id="g21"
     transform="translate(-16.489537,-271.3711)" /><g
     id="g23"
     transform="translate(-16.489537,-271.3711)" /><g
     id="g25"
     transform="translate(-16.489537,-271.3711)" /><g
     id="g27"
     transform="translate(-16.489537,-271.3711)" /><g
     id="g29"
     transform="translate(-16.489537,-271.3711)" /><g
     id="g31"
     transform="translate(-16.489537,-271.3711)" /><g
     id="g33"
     transform="translate(-16.489537,-271.3711)" /></svg>